<?xml version="1.0" encoding="utf-8" standalone="no"?>
<!DOCTYPE svg PUBLIC "-//W3C//DTD SVG 1.1//EN"
  "http://www.w3.org/Graphics/SVG/1.1/DTD/svg11.dtd">
<!-- Created with matplotlib (https://matplotlib.org/) -->
<svg height="144pt" version="1.1" viewBox="0 0 432 144" width="432pt" xmlns="http://www.w3.org/2000/svg" xmlns:xlink="http://www.w3.org/1999/xlink">
 <metadata>
  <rdf:RDF xmlns:cc="http://creativecommons.org/ns#" xmlns:dc="http://purl.org/dc/elements/1.1/" xmlns:rdf="http://www.w3.org/1999/02/22-rdf-syntax-ns#">
   <cc:Work>
    <dc:type rdf:resource="http://purl.org/dc/dcmitype/StillImage"/>
    <dc:date>2020-10-26T15:21:40.003315</dc:date>
    <dc:format>image/svg+xml</dc:format>
    <dc:creator>
     <cc:Agent>
      <dc:title>Matplotlib v3.3.2, https://matplotlib.org/</dc:title>
     </cc:Agent>
    </dc:creator>
   </cc:Work>
  </rdf:RDF>
 </metadata>
 <defs>
  <style type="text/css">*{stroke-linecap:butt;stroke-linejoin:round;}</style>
 </defs>
 <g id="figure_1">
  <g id="patch_1">
   <path d="M 0 144 
L 432 144 
L 432 0 
L 0 0 
z
" style="fill:none;"/>
  </g>
  <g id="axes_1">
   <g id="PathCollection_1">
    <defs>
     <path d="M 0 2.236068 
C 0.593012 2.236068 1.161816 2.000462 1.581139 1.581139 
C 2.000462 1.161816 2.236068 0.593012 2.236068 0 
C 2.236068 -0.593012 2.000462 -1.161816 1.581139 -1.581139 
C 1.161816 -2.000462 0.593012 -2.236068 0 -2.236068 
C -0.593012 -2.236068 -1.161816 -2.000462 -1.581139 -1.581139 
C -2.000462 -1.161816 -2.236068 -0.593012 -2.236068 0 
C -2.236068 0.593012 -2.000462 1.161816 -1.581139 1.581139 
C -1.161816 2.000462 -0.593012 2.236068 0 2.236068 
z
" id="m0064bc16fc" style="stroke:#000000;"/>
    </defs>
    <g clip-path="url(#p202daaa3ca)">
     <use style="stroke:#000000;" x="69.218182" xlink:href="#m0064bc16fc" y="71.64"/>
    </g>
   </g>
   <g id="PathCollection_2">
    <g clip-path="url(#p202daaa3ca)">
     <use style="stroke:#000000;" x="130.090909" xlink:href="#m0064bc16fc" y="71.64"/>
    </g>
   </g>
   <g id="PathCollection_3">
    <g clip-path="url(#p202daaa3ca)">
     <use style="stroke:#000000;" x="190.963636" xlink:href="#m0064bc16fc" y="71.64"/>
    </g>
   </g>
   <g id="PathCollection_4">
    <g clip-path="url(#p202daaa3ca)">
     <use style="stroke:#000000;" x="251.836364" xlink:href="#m0064bc16fc" y="71.64"/>
    </g>
   </g>
   <g id="PathCollection_5">
    <g clip-path="url(#p202daaa3ca)">
     <use style="stroke:#000000;" x="312.709091" xlink:href="#m0064bc16fc" y="71.64"/>
    </g>
   </g>
   <g id="PathCollection_6">
    <g clip-path="url(#p202daaa3ca)">
     <use style="stroke:#000000;" x="373.581818" xlink:href="#m0064bc16fc" y="71.64"/>
    </g>
   </g>
  </g>
 </g>
 <defs>
  <clipPath id="p202daaa3ca">
   <rect height="108.72" width="334.8" x="54" y="17.28"/>
  </clipPath>
 </defs>
</svg>
