<?xml version="1.0" encoding="UTF-8" standalone="no"?>
<svg
   xmlns:dc="http://purl.org/dc/elements/1.1/"
   xmlns:cc="http://creativecommons.org/ns#"
   xmlns:rdf="http://www.w3.org/1999/02/22-rdf-syntax-ns#"
   xmlns:svg="http://www.w3.org/2000/svg"
   xmlns="http://www.w3.org/2000/svg"
   xmlns:xlink="http://www.w3.org/1999/xlink"
   xmlns:sodipodi="http://sodipodi.sourceforge.net/DTD/sodipodi-0.dtd"
   xmlns:inkscape="http://www.inkscape.org/namespaces/inkscape"
   width="107.623mm"
   height="85.053001mm"
   viewBox="0 0 107.623 85.053003"
   version="1.1"
   id="svg8"
   inkscape:version="1.0.1 (1.0.1+r73)"
   sodipodi:docname="hw2_q1_drawing.svg"
   inkscape:export-filename="/home/yizaochen/courses/biostatistics_course/notebooks/hw2_images/hw2_q1.png"
   inkscape:export-xdpi="199.89388"
   inkscape:export-ydpi="199.89388">
  <defs
     id="defs2">
    <rect
       x="49.124088"
       y="130.58762"
       width="39.689133"
       height="29.680147"
       id="rect1304" />
    <style
       type="text/css"
       id="style835">*{stroke-linecap:butt;stroke-linejoin:round;}</style>
    <path
       d="m 31.78125,66.40625 q -7.609375,0 -11.453125,-7.5 Q 16.5,51.421875 16.5,36.375 q 0,-14.984375 3.828125,-22.484375 3.84375,-7.5 11.453125,-7.5 7.671875,0 11.5,7.5 3.84375,7.5 3.84375,22.484375 0,15.046875 -3.84375,22.53125 -3.828125,7.5 -11.5,7.5 z m 0,7.8125 q 12.265625,0 18.734375,-9.703125 6.46875,-9.6875 6.46875,-28.140625 0,-18.40625 -6.46875,-28.109375 -6.46875,-9.6875 -18.734375,-9.6875 -12.25,0 -18.71875,9.6875 Q 6.59375,17.96875 6.59375,36.375 q 0,18.453125 6.46875,28.140625 6.46875,9.703125 18.71875,9.703125 z"
       id="DejaVuSans-48" />
    <path
       d="M 10.6875,12.40625 H 21 V 0 H 10.6875 Z"
       id="DejaVuSans-46" />
    <path
       d="M 37.796875,64.3125 12.890625,25.390625 h 24.90625 z m -2.59375,8.59375 h 12.40625 V 25.390625 h 10.40625 V 17.1875 H 47.609375 V 0 h -9.8125 V 17.1875 H 4.890625 v 9.515625 z"
       id="DejaVuSans-52" />
    <path
       d="m 10.796875,72.90625 h 38.71875 v -8.3125 h -29.6875 V 46.734375 q 2.140625,0.734375 4.28125,1.09375 2.15625,0.359375 4.3125,0.359375 Q 40.625,48.1875 47.75,41.5 54.890625,34.8125 54.890625,23.390625 54.890625,11.625 47.5625,5.09375 40.234375,-1.421875 26.90625,-1.421875 q -4.59375,0 -9.359375,0.78125 -4.75,0.78125 -9.828125,2.34375 V 11.625 q 4.390625,-2.390625 9.078125,-3.5625 4.6875,-1.171875 9.90625,-1.171875 8.453125,0 13.375,4.4375 4.9375,4.4375 4.9375,12.0625 0,7.609375 -4.9375,12.046875 -4.921875,4.453125 -13.375,4.453125 -3.953125,0 -7.890625,-0.875 -3.921875,-0.875 -8.015625,-2.734375 z"
       id="DejaVuSans-53" />
    <path
       d="M 19.1875,8.296875 H 53.609375 V 0 H 7.328125 v 8.296875 q 5.609375,5.8125 15.296875,15.59375 9.703125,9.796875 12.1875,12.640625 4.734375,5.3125 6.609375,9 1.890625,3.6875 1.890625,7.25 0,5.8125 -4.078125,9.46875 -4.078125,3.671875 -10.625,3.671875 -4.640625,0 -9.796875,-1.609375 -5.140625,-1.609375 -11,-4.890625 v 9.96875 Q 13.765625,71.78125 18.9375,73 q 5.1875,1.21875 9.484375,1.21875 11.328125,0 18.0625,-5.671875 6.734375,-5.65625 6.734375,-15.125 0,-4.5 -1.6875,-8.53125 Q 49.859375,40.875 45.40625,35.40625 44.1875,33.984375 37.640625,27.21875 31.109375,20.453125 19.1875,8.296875 Z"
       id="DejaVuSans-50" />
    <path
       d="M 19.671875,64.796875 V 37.40625 h 12.40625 q 6.890625,0 10.640625,3.5625 3.765625,3.5625 3.765625,10.15625 0,6.546875 -3.765625,10.109375 -3.75,3.5625 -10.640625,3.5625 z M 9.8125,72.90625 h 22.265625 q 12.265625,0 18.53125,-5.546875 6.28125,-5.546875 6.28125,-16.234375 0,-10.796875 -6.28125,-16.3125 -6.265625,-5.515625 -18.53125,-5.515625 H 19.671875 V 0 H 9.8125 Z"
       id="DejaVuSans-80" />
    <path
       d="m 41.109375,46.296875 q -1.515625,0.875 -3.296875,1.28125 Q 36.03125,48 33.890625,48 26.265625,48 22.1875,43.046875 18.109375,38.09375 18.109375,28.8125 V 0 h -9.03125 v 54.6875 h 9.03125 v -8.5 q 2.84375,4.984375 7.375,7.390625 Q 30.03125,56 36.53125,56 q 0.921875,0 2.046875,-0.125 1.125,-0.109375 2.484375,-0.359375 z"
       id="DejaVuSans-114" />
    <path
       d="M 9.421875,54.6875 H 18.40625 V 0 H 9.421875 Z m 0,21.296875 H 18.40625 V 64.59375 H 9.421875 Z"
       id="DejaVuSans-105" />
    <path
       d="M 54.890625,33.015625 V 0 H 45.90625 v 32.71875 q 0,7.765625 -3.03125,11.609375 -3.03125,3.859375 -9.078125,3.859375 -7.28125,0 -11.484375,-4.640625 -4.203125,-4.625 -4.203125,-12.640625 V 0 h -9.03125 v 54.6875 h 9.03125 v -8.5 q 3.234375,4.9375 7.59375,7.375 4.375,2.4375 10.09375,2.4375 9.421875,0 14.25,-5.828125 4.84375,-5.828125 4.84375,-17.15625 z"
       id="DejaVuSans-110" />
    <path
       d="M 48.78125,52.59375 V 44.1875 q -3.8125,2.109375 -7.640625,3.15625 -3.828125,1.046875 -7.734375,1.046875 -8.75,0 -13.59375,-5.546875 -4.828125,-5.53125 -4.828125,-15.546875 0,-10.015625 4.828125,-15.5625 4.84375,-5.53125 13.59375,-5.53125 3.90625,0 7.734375,1.046875 3.828125,1.046875 7.640625,3.15625 v -8.3125 q -3.765625,-1.75 -7.796875,-2.625 -4.015625,-0.890625 -8.5625,-0.890625 -12.359375,0 -19.640625,7.765625 -7.265625,7.765625 -7.265625,20.953125 0,13.375 7.34375,21.03125 Q 20.21875,56 33.015625,56 q 4.140625,0 8.09375,-0.859375 3.953125,-0.84375 7.671875,-2.546875 z"
       id="DejaVuSans-99" />
    <path
       d="m 56.203125,29.59375 v -4.390625 h -41.3125 q 0.59375,-9.28125 5.59375,-14.140625 5,-4.859375 13.9375,-4.859375 5.171875,0 10.03125,1.265625 4.859375,1.265625 9.65625,3.8125 v -8.5 q -4.84375,-2.046875 -9.921875,-3.125 -5.078125,-1.078125 -10.296875,-1.078125 -13.09375,0 -20.734375,7.609375 -7.640625,7.625 -7.640625,20.625 0,13.421875 7.25,21.296875 Q 20.015625,56 32.328125,56 q 11.03125,0 17.453125,-7.109375 6.421875,-7.09375 6.421875,-19.296875 z m -8.984375,2.640625 q -0.09375,7.359375 -4.125,11.75 -4.03125,4.40625 -10.671875,4.40625 -7.515625,0 -12.03125,-4.25 -4.515625,-4.25 -5.203125,-11.96875 z"
       id="DejaVuSans-101" />
    <path
       d="M 18.3125,70.21875 V 54.6875 h 18.5 v -6.984375 h -18.5 v -29.6875 q 0,-6.6875 1.828125,-8.59375 1.828125,-1.90625 7.453125,-1.90625 H 36.8125 V 0 H 27.59375 Q 17.1875,0 13.234375,3.875 9.28125,7.765625 9.28125,18.015625 v 29.6875 H 2.6875 V 54.6875 h 6.59375 v 15.53125 z"
       id="DejaVuSans-116" />
    <path
       d="m 30.609375,48.390625 q -7.21875,0 -11.421875,-5.640625 -4.203125,-5.640625 -4.203125,-15.453125 0,-9.8125 4.171875,-15.453125 4.1875,-5.640625 11.453125,-5.640625 7.1875,0 11.375,5.65625 4.203125,5.671875 4.203125,15.4375 0,9.71875 -4.203125,15.40625 -4.1875,5.6875 -11.375,5.6875 z m 0,7.609375 q 11.71875,0 18.40625,-7.625 6.703125,-7.609375 6.703125,-21.078125 0,-13.421875 -6.703125,-21.078125 -6.6875,-7.640625 -18.40625,-7.640625 -11.765625,0 -18.4375,7.640625 -6.65625,7.65625 -6.65625,21.078125 0,13.46875 6.65625,21.078125 Q 18.84375,56 30.609375,56 Z"
       id="DejaVuSans-111" />
    <path
       d="m 53.515625,70.515625 v -9.625 q -5.609375,2.6875 -10.59375,4 -4.984375,1.328125 -9.625,1.328125 -8.046875,0 -12.421875,-3.125 -4.375,-3.125 -4.375,-8.890625 0,-4.84375 2.90625,-7.3125 2.90625,-2.453125 11.015625,-3.96875 L 36.375,41.703125 Q 47.40625,39.59375 52.65625,34.296875 57.90625,29 57.90625,20.125 q 0,-10.609375 -7.109375,-16.078125 -7.09375,-5.46875 -20.8125,-5.46875 -5.171875,0 -11.015625,1.171875 Q 13.140625,0.921875 6.890625,3.21875 V 13.375 q 6,-3.359375 11.765625,-5.078125 5.765625,-1.703125 11.328125,-1.703125 8.4375,0 13.03125,3.3125 4.59375,3.328125 4.59375,9.484375 0,5.359375 -3.296875,8.390625 Q 41.015625,30.8125 33.5,32.328125 L 27.484375,33.5 q -11.03125,2.1875 -15.96875,6.875 -4.921875,4.6875 -4.921875,13.046875 0,9.671875 6.8125,15.234375 6.8125,5.5625 18.765625,5.5625 5.140625,0 10.453125,-0.9375 5.328125,-0.921875 10.890625,-2.765625 z"
       id="DejaVuSans-83" />
    <path
       d="m 34.28125,27.484375 q -10.890625,0 -15.09375,-2.484375 -4.203125,-2.484375 -4.203125,-8.5 0,-4.78125 3.15625,-7.59375 3.15625,-2.796875 8.5625,-2.796875 7.484375,0 12,5.296875 4.515625,5.296875 4.515625,14.078125 v 2 z m 17.921875,3.71875 V 0 H 43.21875 v 8.296875 q -3.078125,-4.96875 -7.671875,-7.34375 -4.59375,-2.375 -11.234375,-2.375 -8.390625,0 -13.359375,4.71875 Q 6,8.015625 6,15.921875 q 0,9.21875 6.171875,13.90625 6.1875,4.6875 18.4375,4.6875 H 43.21875 v 0.890625 q 0,6.203125 -4.078125,9.59375 -4.078125,3.390625 -11.453125,3.390625 -4.6875,0 -9.140625,-1.125 -4.4375,-1.125 -8.53125,-3.375 v 8.3125 q 4.921875,1.90625 9.5625,2.84375 Q 24.21875,56 28.609375,56 q 11.875,0 17.734375,-6.15625 5.859375,-6.140625 5.859375,-18.640625 z"
       id="DejaVuSans-97" />
    <path
       d="M 37.109375,75.984375 V 68.5 h -8.59375 q -4.828125,0 -6.71875,-1.953125 -1.875,-1.953125 -1.875,-7.03125 V 54.6875 H 34.71875 V 47.703125 H 19.921875 V 0 h -9.03125 V 47.703125 H 2.296875 V 54.6875 h 8.59375 V 58.5 q 0,9.125 4.25,13.296875 4.25,4.1875 13.46875,4.1875 z"
       id="DejaVuSans-102" />
    <path
       d="m 45.40625,46.390625 v 29.59375 h 8.984375 V 0 H 45.40625 v 8.203125 q -2.828125,-4.875 -7.15625,-7.25 -4.3125,-2.375 -10.375,-2.375 -9.90625,0 -16.140625,7.90625 -6.21875,7.921875 -6.21875,20.8125 0,12.890625 6.21875,20.796875 Q 17.96875,56 27.875,56 q 6.0625,0 10.375,-2.375 4.328125,-2.359375 7.15625,-7.234375 z M 14.796875,27.296875 q 0,-9.90625 4.078125,-15.546875 4.078125,-5.640625 11.203125,-5.640625 7.125,0 11.21875,5.640625 4.109375,5.640625 4.109375,15.546875 0,9.90625 -4.109375,15.546875 -4.09375,5.640625 -11.21875,5.640625 -7.125,0 -11.203125,-5.640625 -4.078125,-5.640625 -4.078125,-15.546875 z"
       id="DejaVuSans-100" />
    <clipPath
       id="pa325a0e129">
      <rect
         height="217.44"
         width="309.66315"
         x="66.56842"
         y="34.560001"
         id="rect953" />
    </clipPath>
    <rect
       x="49.124088"
       y="130.58762"
       width="39.689133"
       height="29.680147"
       id="rect1304-3" />
    <rect
       x="49.124088"
       y="130.58762"
       width="39.689133"
       height="29.680147"
       id="rect1317" />
    <rect
       x="49.124088"
       y="130.58762"
       width="39.689133"
       height="29.680147"
       id="rect1304-7" />
    <rect
       x="49.124088"
       y="130.58762"
       width="39.689133"
       height="29.680147"
       id="rect1346" />
    <rect
       x="49.124088"
       y="130.58762"
       width="39.689133"
       height="29.680147"
       id="rect1304-35" />
    <rect
       x="49.124088"
       y="130.58762"
       width="39.689133"
       height="29.680147"
       id="rect1690" />
  </defs>
  <sodipodi:namedview
     id="base"
     pagecolor="#ffffff"
     bordercolor="#666666"
     borderopacity="1.0"
     inkscape:pageopacity="0.0"
     inkscape:pageshadow="2"
     inkscape:zoom="0.49497475"
     inkscape:cx="688.32224"
     inkscape:cy="289.08099"
     inkscape:document-units="mm"
     inkscape:current-layer="layer1"
     inkscape:document-rotation="0"
     showgrid="false"
     showguides="true"
     inkscape:guide-bbox="true"
     inkscape:window-width="1427"
     inkscape:window-height="872"
     inkscape:window-x="2191"
     inkscape:window-y="139"
     inkscape:window-maximized="0">
    <sodipodi:guide
       position="107.62297,-52.548734"
       orientation="1,0"
       id="guide1151" />
    <sodipodi:guide
       position="212.53109,26.130998"
       orientation="0,1"
       id="guide1153"
       inkscape:label=""
       inkscape:locked="false"
       inkscape:color="rgb(0,0,255)" />
  </sodipodi:namedview>
  <metadata
     id="metadata5">
    <rdf:RDF>
      <cc:Work
         rdf:about="">
        <dc:format>image/svg+xml</dc:format>
        <dc:type
           rdf:resource="http://purl.org/dc/dcmitype/StillImage" />
        <dc:title></dc:title>
      </cc:Work>
    </rdf:RDF>
  </metadata>
  <g
     inkscape:label="Layer 1"
     inkscape:groupmode="layer"
     id="layer1">
    <g
       id="figure_1"
       transform="matrix(0.35277778,0,0,0.35277778,-23.760511,-12.709467)">
      <g
         id="patch_1">
        <path
           d="M 0,288 H 432 V 0 H 0 Z"
           style="fill:none"
           id="path839" />
      </g>
      <g
         id="axes_1">
        <g
           id="patch_2">
          <path
             clip-path="url(#pa325a0e129)"
             d="m 212.38112,213.09154 c -10.54358,-8.3263 -19.06516,-18.934 -24.92314,-31.02442 -5.85799,-12.09043 -8.90156,-25.35231 -8.90156,-38.78712 0,-13.43481 3.04357,-26.6967 8.90156,-38.78712 5.85798,-12.090417 14.37956,-22.698122 24.92314,-31.024424 -12.46431,-7.800757 -26.79326,-12.122897 -41.49213,-12.515558 -14.69886,-0.39266 -29.23813,3.158304 -42.10114,10.282476 -12.86301,7.124171 -23.58638,17.564907 -31.051503,30.233086 -7.465127,12.66817 -11.403083,27.10743 -11.403083,41.81154 0,14.70411 3.937956,29.14337 11.403083,41.81154 7.465123,12.66818 18.188493,23.10891 31.051503,30.23309 12.86301,7.12417 27.40228,10.67513 42.10114,10.28247 14.69887,-0.39266 29.02782,-4.7148 41.49213,-12.51556"
             style="opacity:0.4;fill:#ff0000"
             id="path842" />
        </g>
        <g
           id="patch_3">
          <path
             clip-path="url(#pa325a0e129)"
             d="m 212.38112,73.468456 c 11.83245,7.405311 21.59022,17.69872 28.35324,29.909664 6.76303,12.21094 10.31185,25.94317 10.31185,39.90188 0,13.95871 -3.54882,27.69094 -10.31185,39.90188 -6.76302,12.21094 -16.52079,22.50435 -28.35324,29.90966 13.11143,10.35416 28.87838,16.80812 45.48675,18.61933 16.60837,1.8112 33.39581,-1.09258 48.43083,-8.37727 15.03502,-7.28468 27.718,-18.65973 36.58971,-32.8164 8.87171,-14.15667 13.57833,-30.53036 13.57833,-47.2372 0,-16.70684 -4.70662,-33.08053 -13.57833,-47.237199 C 334.0167,81.886134 321.33372,70.511079 306.2987,63.226396 291.26368,55.941714 274.47624,53.037927 257.86787,54.849131 241.2595,56.660335 225.49255,63.114298 212.38112,73.468456"
             style="opacity:0.4;fill:#008000"
             id="path845" />
        </g>
        <g
           id="patch_4">
          <path
             clip-path="url(#pa325a0e129)"
             d="m 212.38112,213.09154 c 11.83245,-7.40531 21.59022,-17.69872 28.35324,-29.90966 6.76303,-12.21094 10.31185,-25.94317 10.31185,-39.90188 0,-13.95871 -3.54882,-27.69094 -10.31185,-39.90188 -6.76302,-12.210944 -16.52079,-22.504353 -28.35324,-29.909664 -10.54358,8.326302 -19.06516,18.934007 -24.92314,31.024424 -5.85799,12.09042 -8.90156,25.35231 -8.90156,38.78712 0,13.43481 3.04357,26.69669 8.90156,38.78712 5.85798,12.09042 14.37956,22.69812 24.92314,31.02442"
             style="opacity:0.4;fill:#b25900"
             id="path848" />
        </g>
        <g
           id="patch_5">
          <path
             clip-path="url(#pa325a0e129)"
             d="m 168.68974,225.63647 c 21.84119,0 42.79076,-8.6776 58.23481,-24.12165 15.44406,-15.44406 24.12166,-36.39363 24.12166,-58.23482 0,-21.84119 -8.6776,-42.79077 -24.12166,-58.23482 -15.44405,-15.444054 -36.39362,-24.121652 -58.23481,-24.121652 -21.8412,0 -42.79077,8.677598 -58.23482,24.121652 -15.444059,15.44405 -24.121656,36.39363 -24.121656,58.23482 0,21.84119 8.677597,42.79076 24.121656,58.23482 15.44405,15.44405 36.39362,24.12165 58.23482,24.12165 z"
             style="fill:none;stroke:#000000;stroke-width:2;stroke-linejoin:miter"
             id="path851" />
        </g>
        <g
           id="patch_6">
          <path
             clip-path="url(#pa325a0e129)"
             d="m 267.51158,232.23516 c 23.59118,0 46.21931,-9.37288 62.90079,-26.05437 16.68149,-16.68148 26.05437,-39.30961 26.05437,-62.90079 0,-23.59118 -9.37288,-46.219309 -26.05437,-62.900794 -16.68148,-16.681486 -39.30961,-26.054362 -62.90079,-26.054362 -23.59118,0 -46.21931,9.372876 -62.90079,26.054362 -16.68149,16.681485 -26.05437,39.309614 -26.05437,62.900794 0,23.59118 9.37288,46.21931 26.05437,62.90079 16.68148,16.68149 39.30961,26.05437 62.90079,26.05437 z"
             style="fill:none;stroke:#000000;stroke-width:2;stroke-linejoin:miter"
             id="path854" />
        </g>
        <g
           id="text_1">
          <!-- 0.4 -->
          <g
             transform="matrix(0.1,0,0,-0.1,124.49328,146.03937)"
             id="g868">
            <defs
               id="defs860">
              <path
                 d="m 31.78125,66.40625 q -7.609375,0 -11.453125,-7.5 Q 16.5,51.421875 16.5,36.375 q 0,-14.984375 3.828125,-22.484375 3.84375,-7.5 11.453125,-7.5 7.671875,0 11.5,7.5 3.84375,7.5 3.84375,22.484375 0,15.046875 -3.84375,22.53125 -3.828125,7.5 -11.5,7.5 z m 0,7.8125 q 12.265625,0 18.734375,-9.703125 6.46875,-9.6875 6.46875,-28.140625 0,-18.40625 -6.46875,-28.109375 -6.46875,-9.6875 -18.734375,-9.6875 -12.25,0 -18.71875,9.6875 Q 6.59375,17.96875 6.59375,36.375 q 0,18.453125 6.46875,28.140625 6.46875,9.703125 18.71875,9.703125 z"
                 id="path994" />
              <path
                 d="M 10.6875,12.40625 H 21 V 0 H 10.6875 Z"
                 id="path996" />
              <path
                 d="M 37.796875,64.3125 12.890625,25.390625 h 24.90625 z m -2.59375,8.59375 h 12.40625 V 25.390625 h 10.40625 V 17.1875 H 47.609375 V 0 h -9.8125 V 17.1875 H 4.890625 v 9.515625 z"
                 id="path998" />
            </defs>
            <use
               xlink:href="#DejaVuSans-48"
               id="use862"
               x="0"
               y="0"
               width="100%"
               height="100%" />
            <use
               x="63.623047"
               xlink:href="#DejaVuSans-46"
               id="use864"
               y="0"
               width="100%"
               height="100%" />
            <use
               x="95.410156"
               xlink:href="#DejaVuSans-52"
               id="use866"
               y="0"
               width="100%"
               height="100%" />
          </g>
        </g>
        <g
           id="text_2">
          <!-- 0.5 -->
          <g
             transform="matrix(0.1,0,0,-0.1,295.80491,146.03937)"
             id="g880">
            <defs
               id="defs872">
              <path
                 d="m 10.796875,72.90625 h 38.71875 v -8.3125 h -29.6875 V 46.734375 q 2.140625,0.734375 4.28125,1.09375 2.15625,0.359375 4.3125,0.359375 Q 40.625,48.1875 47.75,41.5 54.890625,34.8125 54.890625,23.390625 54.890625,11.625 47.5625,5.09375 40.234375,-1.421875 26.90625,-1.421875 q -4.59375,0 -9.359375,0.78125 -4.75,0.78125 -9.828125,2.34375 V 11.625 q 4.390625,-2.390625 9.078125,-3.5625 4.6875,-1.171875 9.90625,-1.171875 8.453125,0 13.375,4.4375 4.9375,4.4375 4.9375,12.0625 0,7.609375 -4.9375,12.046875 -4.921875,4.453125 -13.375,4.453125 -3.953125,0 -7.890625,-0.875 -3.921875,-0.875 -8.015625,-2.734375 z"
                 id="path1006" />
            </defs>
            <use
               xlink:href="#DejaVuSans-48"
               id="use874"
               x="0"
               y="0"
               width="100%"
               height="100%" />
            <use
               x="63.623047"
               xlink:href="#DejaVuSans-46"
               id="use876"
               y="0"
               width="100%"
               height="100%" />
            <use
               x="95.410156"
               xlink:href="#DejaVuSans-53"
               id="use878"
               y="0"
               width="100%"
               height="100%" />
          </g>
        </g>
        <g
           id="text_3">
          <!-- 0.2 -->
          <g
             transform="matrix(0.1,0,0,-0.1,206.84975,146.03937)"
             id="g892">
            <defs
               id="defs884">
              <path
                 d="M 19.1875,8.296875 H 53.609375 V 0 H 7.328125 v 8.296875 q 5.609375,5.8125 15.296875,15.59375 9.703125,9.796875 12.1875,12.640625 4.734375,5.3125 6.609375,9 1.890625,3.6875 1.890625,7.25 0,5.8125 -4.078125,9.46875 -4.078125,3.671875 -10.625,3.671875 -4.640625,0 -9.796875,-1.609375 -5.140625,-1.609375 -11,-4.890625 v 9.96875 Q 13.765625,71.78125 18.9375,73 q 5.1875,1.21875 9.484375,1.21875 11.328125,0 18.0625,-5.671875 6.734375,-5.65625 6.734375,-15.125 0,-4.5 -1.6875,-8.53125 Q 49.859375,40.875 45.40625,35.40625 44.1875,33.984375 37.640625,27.21875 31.109375,20.453125 19.1875,8.296875 Z"
                 id="path1014" />
            </defs>
            <use
               xlink:href="#DejaVuSans-48"
               id="use886"
               x="0"
               y="0"
               width="100%"
               height="100%" />
            <use
               x="63.623047"
               xlink:href="#DejaVuSans-46"
               id="use888"
               y="0"
               width="100%"
               height="100%" />
            <use
               x="95.410156"
               xlink:href="#DejaVuSans-50"
               id="use890"
               y="0"
               width="100%"
               height="100%" />
          </g>
        </g>
        <g
           id="text_4">
          <!-- Princeton -->
          <g
             transform="matrix(0.12,0,0,-0.12,112.15849,243.32018)"
             id="g923">
            <defs
               id="defs903">
              <path
                 d="M 19.671875,64.796875 V 37.40625 h 12.40625 q 6.890625,0 10.640625,3.5625 3.765625,3.5625 3.765625,10.15625 0,6.546875 -3.765625,10.109375 -3.75,3.5625 -10.640625,3.5625 z M 9.8125,72.90625 h 22.265625 q 12.265625,0 18.53125,-5.546875 6.28125,-5.546875 6.28125,-16.234375 0,-10.796875 -6.28125,-16.3125 -6.265625,-5.515625 -18.53125,-5.515625 H 19.671875 V 0 H 9.8125 Z"
                 id="path1022" />
              <path
                 d="m 41.109375,46.296875 q -1.515625,0.875 -3.296875,1.28125 Q 36.03125,48 33.890625,48 26.265625,48 22.1875,43.046875 18.109375,38.09375 18.109375,28.8125 V 0 h -9.03125 v 54.6875 h 9.03125 v -8.5 q 2.84375,4.984375 7.375,7.390625 Q 30.03125,56 36.53125,56 q 0.921875,0 2.046875,-0.125 1.125,-0.109375 2.484375,-0.359375 z"
                 id="path1024" />
              <path
                 d="M 9.421875,54.6875 H 18.40625 V 0 H 9.421875 Z m 0,21.296875 H 18.40625 V 64.59375 H 9.421875 Z"
                 id="path1026" />
              <path
                 d="M 54.890625,33.015625 V 0 H 45.90625 v 32.71875 q 0,7.765625 -3.03125,11.609375 -3.03125,3.859375 -9.078125,3.859375 -7.28125,0 -11.484375,-4.640625 -4.203125,-4.625 -4.203125,-12.640625 V 0 h -9.03125 v 54.6875 h 9.03125 v -8.5 q 3.234375,4.9375 7.59375,7.375 4.375,2.4375 10.09375,2.4375 9.421875,0 14.25,-5.828125 4.84375,-5.828125 4.84375,-17.15625 z"
                 id="path1028" />
              <path
                 d="M 48.78125,52.59375 V 44.1875 q -3.8125,2.109375 -7.640625,3.15625 -3.828125,1.046875 -7.734375,1.046875 -8.75,0 -13.59375,-5.546875 -4.828125,-5.53125 -4.828125,-15.546875 0,-10.015625 4.828125,-15.5625 4.84375,-5.53125 13.59375,-5.53125 3.90625,0 7.734375,1.046875 3.828125,1.046875 7.640625,3.15625 v -8.3125 q -3.765625,-1.75 -7.796875,-2.625 -4.015625,-0.890625 -8.5625,-0.890625 -12.359375,0 -19.640625,7.765625 -7.265625,7.765625 -7.265625,20.953125 0,13.375 7.34375,21.03125 Q 20.21875,56 33.015625,56 q 4.140625,0 8.09375,-0.859375 3.953125,-0.84375 7.671875,-2.546875 z"
                 id="path1030" />
              <path
                 d="m 56.203125,29.59375 v -4.390625 h -41.3125 q 0.59375,-9.28125 5.59375,-14.140625 5,-4.859375 13.9375,-4.859375 5.171875,0 10.03125,1.265625 4.859375,1.265625 9.65625,3.8125 v -8.5 q -4.84375,-2.046875 -9.921875,-3.125 -5.078125,-1.078125 -10.296875,-1.078125 -13.09375,0 -20.734375,7.609375 -7.640625,7.625 -7.640625,20.625 0,13.421875 7.25,21.296875 Q 20.015625,56 32.328125,56 q 11.03125,0 17.453125,-7.109375 6.421875,-7.09375 6.421875,-19.296875 z m -8.984375,2.640625 q -0.09375,7.359375 -4.125,11.75 -4.03125,4.40625 -10.671875,4.40625 -7.515625,0 -12.03125,-4.25 -4.515625,-4.25 -5.203125,-11.96875 z"
                 id="path1032" />
              <path
                 d="M 18.3125,70.21875 V 54.6875 h 18.5 v -6.984375 h -18.5 v -29.6875 q 0,-6.6875 1.828125,-8.59375 1.828125,-1.90625 7.453125,-1.90625 H 36.8125 V 0 H 27.59375 Q 17.1875,0 13.234375,3.875 9.28125,7.765625 9.28125,18.015625 v 29.6875 H 2.6875 V 54.6875 h 6.59375 v 15.53125 z"
                 id="path1034" />
              <path
                 d="m 30.609375,48.390625 q -7.21875,0 -11.421875,-5.640625 -4.203125,-5.640625 -4.203125,-15.453125 0,-9.8125 4.171875,-15.453125 4.1875,-5.640625 11.453125,-5.640625 7.1875,0 11.375,5.65625 4.203125,5.671875 4.203125,15.4375 0,9.71875 -4.203125,15.40625 -4.1875,5.6875 -11.375,5.6875 z m 0,7.609375 q 11.71875,0 18.40625,-7.625 6.703125,-7.609375 6.703125,-21.078125 0,-13.421875 -6.703125,-21.078125 -6.6875,-7.640625 -18.40625,-7.640625 -11.765625,0 -18.4375,7.640625 -6.65625,7.65625 -6.65625,21.078125 0,13.46875 6.65625,21.078125 Q 18.84375,56 30.609375,56 Z"
                 id="path1036" />
            </defs>
            <use
               xlink:href="#DejaVuSans-80"
               id="use905"
               x="0"
               y="0"
               width="100%"
               height="100%" />
            <use
               x="58.552734"
               xlink:href="#DejaVuSans-114"
               id="use907"
               y="0"
               width="100%"
               height="100%" />
            <use
               x="99.666016"
               xlink:href="#DejaVuSans-105"
               id="use909"
               y="0"
               width="100%"
               height="100%" />
            <use
               x="127.44922"
               xlink:href="#DejaVuSans-110"
               id="use911"
               y="0"
               width="100%"
               height="100%" />
            <use
               x="190.82812"
               xlink:href="#DejaVuSans-99"
               id="use913"
               y="0"
               width="100%"
               height="100%" />
            <use
               x="245.80859"
               xlink:href="#DejaVuSans-101"
               id="use915"
               y="0"
               width="100%"
               height="100%" />
            <use
               x="307.33203"
               xlink:href="#DejaVuSans-116"
               id="use917"
               y="0"
               width="100%"
               height="100%" />
            <use
               x="346.54102"
               xlink:href="#DejaVuSans-111"
               id="use919"
               y="0"
               width="100%"
               height="100%" />
            <use
               x="407.72266"
               xlink:href="#DejaVuSans-110"
               id="use921"
               y="0"
               width="100%"
               height="100%" />
          </g>
        </g>
        <g
           id="text_5">
          <!-- Stanford -->
          <g
             transform="matrix(0.12,0,0,-0.12,267.51158,249.91886)"
             id="g948">
            <defs
               id="defs930">
              <path
                 d="m 53.515625,70.515625 v -9.625 q -5.609375,2.6875 -10.59375,4 -4.984375,1.328125 -9.625,1.328125 -8.046875,0 -12.421875,-3.125 -4.375,-3.125 -4.375,-8.890625 0,-4.84375 2.90625,-7.3125 2.90625,-2.453125 11.015625,-3.96875 L 36.375,41.703125 Q 47.40625,39.59375 52.65625,34.296875 57.90625,29 57.90625,20.125 q 0,-10.609375 -7.109375,-16.078125 -7.09375,-5.46875 -20.8125,-5.46875 -5.171875,0 -11.015625,1.171875 Q 13.140625,0.921875 6.890625,3.21875 V 13.375 q 6,-3.359375 11.765625,-5.078125 5.765625,-1.703125 11.328125,-1.703125 8.4375,0 13.03125,3.3125 4.59375,3.328125 4.59375,9.484375 0,5.359375 -3.296875,8.390625 Q 41.015625,30.8125 33.5,32.328125 L 27.484375,33.5 q -11.03125,2.1875 -15.96875,6.875 -4.921875,4.6875 -4.921875,13.046875 0,9.671875 6.8125,15.234375 6.8125,5.5625 18.765625,5.5625 5.140625,0 10.453125,-0.9375 5.328125,-0.921875 10.890625,-2.765625 z"
                 id="path1050" />
              <path
                 d="m 34.28125,27.484375 q -10.890625,0 -15.09375,-2.484375 -4.203125,-2.484375 -4.203125,-8.5 0,-4.78125 3.15625,-7.59375 3.15625,-2.796875 8.5625,-2.796875 7.484375,0 12,5.296875 4.515625,5.296875 4.515625,14.078125 v 2 z m 17.921875,3.71875 V 0 H 43.21875 v 8.296875 q -3.078125,-4.96875 -7.671875,-7.34375 -4.59375,-2.375 -11.234375,-2.375 -8.390625,0 -13.359375,4.71875 Q 6,8.015625 6,15.921875 q 0,9.21875 6.171875,13.90625 6.1875,4.6875 18.4375,4.6875 H 43.21875 v 0.890625 q 0,6.203125 -4.078125,9.59375 -4.078125,3.390625 -11.453125,3.390625 -4.6875,0 -9.140625,-1.125 -4.4375,-1.125 -8.53125,-3.375 v 8.3125 q 4.921875,1.90625 9.5625,2.84375 Q 24.21875,56 28.609375,56 q 11.875,0 17.734375,-6.15625 5.859375,-6.140625 5.859375,-18.640625 z"
                 id="path1052" />
              <path
                 d="M 37.109375,75.984375 V 68.5 h -8.59375 q -4.828125,0 -6.71875,-1.953125 -1.875,-1.953125 -1.875,-7.03125 V 54.6875 H 34.71875 V 47.703125 H 19.921875 V 0 h -9.03125 V 47.703125 H 2.296875 V 54.6875 h 8.59375 V 58.5 q 0,9.125 4.25,13.296875 4.25,4.1875 13.46875,4.1875 z"
                 id="path1054" />
              <path
                 d="m 45.40625,46.390625 v 29.59375 h 8.984375 V 0 H 45.40625 v 8.203125 q -2.828125,-4.875 -7.15625,-7.25 -4.3125,-2.375 -10.375,-2.375 -9.90625,0 -16.140625,7.90625 -6.21875,7.921875 -6.21875,20.8125 0,12.890625 6.21875,20.796875 Q 17.96875,56 27.875,56 q 6.0625,0 10.375,-2.375 4.328125,-2.359375 7.15625,-7.234375 z M 14.796875,27.296875 q 0,-9.90625 4.078125,-15.546875 4.078125,-5.640625 11.203125,-5.640625 7.125,0 11.21875,5.640625 4.109375,5.640625 4.109375,15.546875 0,9.90625 -4.109375,15.546875 -4.09375,5.640625 -11.21875,5.640625 -7.125,0 -11.203125,-5.640625 -4.078125,-5.640625 -4.078125,-15.546875 z"
                 id="path1056" />
            </defs>
            <use
               xlink:href="#DejaVuSans-83"
               id="use932"
               x="0"
               y="0"
               width="100%"
               height="100%" />
            <use
               x="63.476562"
               xlink:href="#DejaVuSans-116"
               id="use934"
               y="0"
               width="100%"
               height="100%" />
            <use
               x="102.68555"
               xlink:href="#DejaVuSans-97"
               id="use936"
               y="0"
               width="100%"
               height="100%" />
            <use
               x="163.96484"
               xlink:href="#DejaVuSans-110"
               id="use938"
               y="0"
               width="100%"
               height="100%" />
            <use
               x="227.34375"
               xlink:href="#DejaVuSans-102"
               id="use940"
               y="0"
               width="100%"
               height="100%" />
            <use
               x="262.54883"
               xlink:href="#DejaVuSans-111"
               id="use942"
               y="0"
               width="100%"
               height="100%" />
            <use
               x="323.73047"
               xlink:href="#DejaVuSans-114"
               id="use944"
               y="0"
               width="100%"
               height="100%" />
            <use
               x="363.09375"
               xlink:href="#DejaVuSans-100"
               id="use946"
               y="0"
               width="100%"
               height="100%" />
          </g>
        </g>
      </g>
    </g>
    <rect
       style="fill:none;stroke:#000000;stroke-width:0.695456;stroke-miterlimit:4;stroke-dasharray:none"
       id="rect1073"
       width="99.536415"
       height="75.237709"
       x="4.5452037"
       y="4.4244018" />
    <text
       xml:space="preserve"
       id="text1302"
       style="font-style:normal;font-weight:normal;font-size:6.35px;line-height:1.25;font-family:sans-serif;white-space:pre;shape-inside:url(#rect1304);fill:#000000;fill-opacity:1;stroke:none;"
       transform="translate(-20.667893,-115.06944)"><tspan
         x="49.125"
         y="136.20615"><tspan
           style="font-size:6.35px;stroke-linecap:butt;stroke-linejoin:round">A</tspan></tspan></text>
    <text
       xml:space="preserve"
       id="text1302-6"
       style="font-style:normal;font-weight:normal;font-size:6.35px;line-height:1.25;font-family:sans-serif;white-space:pre;shape-inside:url(#rect1304-3);fill:#000000;fill-opacity:1;stroke:none;stroke-linecap:butt;stroke-linejoin:round;"
       transform="translate(33.982338,-115.56568)"><tspan
         x="49.125"
         y="136.20615"><tspan
           style="font-size:6.35px;stroke-linecap:butt;stroke-linejoin:round">B</tspan></tspan></text>
    <text
       xml:space="preserve"
       id="text1302-5"
       style="font-style:normal;font-weight:normal;font-size:6.35px;line-height:1.25;font-family:sans-serif;white-space:pre;shape-inside:url(#rect1304-7);fill:#000000;fill-opacity:1;stroke:none;stroke-linecap:butt;stroke-linejoin:round;"
       transform="translate(-4.9170491,-87.647057)"><tspan
         x="49.125"
         y="136.20615"><tspan
           style="font-size:6.35px;stroke-linecap:butt;stroke-linejoin:round">A ∩ B</tspan></tspan></text>
    <text
       xml:space="preserve"
       id="text1302-62"
       style="font-style:normal;font-weight:normal;font-size:6.35px;line-height:1.25;font-family:sans-serif;white-space:pre;shape-inside:url(#rect1304-35);fill:#000000;fill-opacity:1;stroke:none;stroke-linecap:butt;stroke-linejoin:round;"
       transform="translate(-42.274927,-124.1208)"><tspan
         x="49.125"
         y="136.20615"><tspan
           style="stroke-linecap:butt;stroke-linejoin:round">S</tspan></tspan></text>
  </g>
</svg>
